PathFileType	4	(X/Y/Z)	C:\Users\Biomechanik\SynologyDrive\AlexP\Athlete_03\Athlete_3_22_07_06\sq_90_EMG\marker_experimental.trc																																																																																																																																																																															
DataRate	CameraRate	NumFrames	NumMarkers	Units	OrigDataRate	OrigDataStartFrame	OrigNumFrames																																																																																																																																																																											
200	200	4	59	mm	200	692	1384																																																																																																																																																																											
Frame#	Time	BL			BR			GLAB			RFHD			LFHD			C7			T6			SPINMOL			SPINM2			SPINM3			T12			BELTOL			BELT2			BELT3			SACROL			SACR2			SACR3			LTHOL			LTH2			LTH3			LSHAOL			LSHA2			LSHA3			LHEE			LTOE			LM5			RTHOL			RTH2			RTH3			RSHAOL			RSHA2			RSHA3			RHEE			RTOE			RM5			STRN			XIPH			LACR			LUAOL			LUA2			LUA3			LLAOL			LLA2			LLA3			LWRU			RACR			RUAOL			RUA3			RLAOL			RLA2			RLA3			RWRU			RUA2			USERMO0			USERMO1			USERMO2			USERMO3			USERMO4			USERMO5		
		X1	Y1	Z1	X2	Y2	Z2	X3	Y3	Z3	X4	Y4	Z4	X5	Y5	Z5	X6	Y6	Z6	X7	Y7	Z7	X8	Y8	Z8	X9	Y9	Z9	X10	Y10	Z10	X11	Y11	Z11	X12	Y12	Z12	X13	Y13	Z13	X14	Y14	Z14	X15	Y15	Z15	X16	Y16	Z16	X17	Y17	Z17	X18	Y18	Z18	X19	Y19	Z19	X20	Y20	Z20	X21	Y21	Z21	X22	Y22	Z22	X23	Y23	Z23	X24	Y24	Z24	X25	Y25	Z25	X26	Y26	Z26	X27	Y27	Z27	X28	Y28	Z28	X29	Y29	Z29	X30	Y30	Z30	X31	Y31	Z31	X32	Y32	Z32	X33	Y33	Z33	X34	Y34	Z34	X35	Y35	Z35	X36	Y36	Z36	X37	Y37	Z37	X38	Y38	Z38	X39	Y39	Z39	X40	Y40	Z40	X41	Y41	Z41	X42	Y42	Z42	X43	Y43	Z43	X44	Y44	Z44	X45	Y45	Z45	X46	Y46	Z46	X47	Y47	Z47	X48	Y48	Z48	X49	Y49	Z49	X50	Y50	Z50	X51	Y51	Z51	X52	Y52	Z52	X53	Y53	Z53	X54	Y54	Z54	X55	Y55	Z55	X56	Y56	Z56	X57	Y57	Z57	X58	Y58	Z58	X59	Y59	Z59
																																																																																																																																																																																		
693	3.46	131.4910431	793.1609497	-2296.741943	264.7391663	825.0951538	-79.17030334	541.9943237	985.0249023	-1179.791992	481.0329285	999.4627686	-1102.463989	479.8797302	999.7485352	-1260.223877	302.4637146	913.1052246	-1173.92041	144.7563171	807.0125732	-1179.962646	125.8433838	794.3201294	-1183.348389	78.94721985	754.6259766	-1132.618286	86.13600159	746.9956665	-1181.31665	63.63599014	720.0877686	-1174.863281	25.33039856	728.6454468	-1174.962891	-15.19714069	686.1085815	-1120.928345	-22.56768799	689.1895752	-1170.469727	-78.49422455	618.7302246	-1195.547363	-65.99343872	624.2261353	-1146.252686	-114.9321289	580.5264893	-1155.703735	39.82260513	520.5785522	-1454.464966	64.77166748	453.3128967	-1490.954224	87.54044342	498.5111389	-1488.344116	185.4413757	305.9871216	-1610.585083	131.2724762	250.7280731	-1594.618042	178.5596313	244.2633514	-1608.40625	61.61777496	43.33991623	-1516.267456	263.6670532	47.19493866	-1559.795654	205.9516449	23.7216053	-1658.056519	59.06376648	493.4649353	-891.5956421	124.2115555	520.8430176	-855.2042236	103.620079	475.6652222	-851.9052734	157.8060455	302.3820801	-759.6500244	174.044281	225.2261505	-753.8239136	134.0268402	247.5353394	-774.7171631	51.06695175	41.49888611	-876.055542	241.6546478	43.87480545	-793.2771606	169.3924866	36.59784698	-709.7191162	379.3702087	757.6105347	-1194.482422	329.7642212	601.6219482	-1191.623901	254.9759216	858.3717651	-1366.889404	116.1885681	774.5431519	-1402.838013	78.20680237	738.8034668	-1362.492188	79.10585022	732.3625488	-1411.968262	67.26296234	696.4343262	-1485.157349	113.4923096	712.3528442	-1527.774292	110.1919022	743.2171631	-1488.17688	159.9187927	786.5476685	-1535.830933	292.1766052	854.5106812	-1001.024536	167.4329529	753.9106445	-945.4585571	106.4167862	738.4848633	-946.6420288	120.3193359	718.3637695	-868.2681885	165.0423889	762.7587891	-882.2272949	163.951889	747.3043213	-833.3532104	198.3001099	782.9034424	-818.5731201	nan	nan	nan	0.249602005	0.094147697	-0.388034999	0.090970002	0.087732904	-0.045259301	0.026967	0.034485102	-0.037797399	0.035390399	0.226025	-0.840948999	0.314482987	2.879379988	-0.340211987	2.760879993	0	0
694	3.465	131.6753845	791.4763794	-2296.80957	264.9370728	823.5185547	-79.23952484	542.1234741	983.4567871	-1179.875366	481.17276	997.8271484	-1102.515381	479.9831848	998.1812134	-1260.290649	302.6348877	911.4796143	-1174.010132	144.9127502	805.4846191	-1180.05249	125.9994965	792.803833	-1183.463013	79.05125427	753.1871948	-1132.721924	86.26136017	745.5032959	-1181.407227	63.7629776	718.647522	-1174.956787	25.47130775	727.2889404	-1174.991333	-15.04787445	684.7641602	-1120.940918	-22.4267807	687.8352051	-1170.482544	-78.35270691	617.1810913	-1195.529907	-65.88088226	622.6831055	-1146.244141	-114.7772369	578.9473877	-1155.702637	39.71900177	519.5494385	-1454.383911	64.80858612	452.3998718	-1490.973145	87.51677704	497.6321106	-1488.278687	185.5408173	305.9484253	-1610.602417	131.35672	250.7133179	-1594.607178	178.6302795	244.2302399	-1608.422607	61.64066696	43.35760498	-1516.249756	263.6739502	47.19466782	-1559.797729	205.9484253	23.72037506	-1658.07605	59.25727463	492.5703125	-891.6957397	124.3585205	520.1621094	-855.3812256	103.8630524	474.9490662	-851.9811401	158.0458679	302.3286743	-759.675354	174.2019348	225.1495361	-753.8379517	134.2189026	247.5011902	-774.7536621	51.0815773	41.51358795	-876.0775146	241.661438	43.85983658	-793.3016968	169.4101563	36.60529709	-709.7415771	379.5274353	755.9761963	-1194.591797	329.9159546	599.9877319	-1191.717407	255.136322	856.7679443	-1366.984497	116.3154602	772.9810791	-1403.013428	78.31533051	737.2822266	-1362.657837	79.23743439	730.8043823	-1412.123047	67.42089844	694.8646851	-1485.289673	113.6774673	710.7678833	-1527.880371	110.3654938	741.6320801	-1488.281006	160.1219025	784.9570313	-1535.908691	292.3973694	852.8781738	-1001.104309	167.6014252	752.3953857	-945.5169067	106.5841675	737.0095215	-946.7337036	120.4407425	716.8505249	-868.3525391	165.1929932	761.2156982	-882.3093262	164.0982819	745.7550049	-833.4371948	198.4590149	781.3384399	-818.6491089	nan	nan	nan	0.248563007	0.092570297	-0.381857991	0.092751302	0.088986799	-0.045883201	0.0277643	0.034691099	-0.0366138	0.037135299	0.225345999	-0.842701972	0.314103007	2.878079891	-0.337687999	2.760689974	0	0
695	3.47	131.8669891	789.7904053	-2296.875488	265.1376038	821.9436646	-79.30734253	542.2554321	981.8817749	-1179.952637	481.3114014	996.1841431	-1102.56604	480.0957642	996.6104736	-1260.35498	302.8058472	909.8572998	-1174.110229	145.0631866	803.9628906	-1180.145386	126.1494904	791.2920532	-1183.581177	79.14957428	751.7528687	-1132.829346	86.38308716	744.0134277	-1181.500732	63.88447571	717.2094727	-1175.051758	25.6107235	725.9321289	-1175.02417	-14.90000439	683.4204712	-1120.956787	-22.2876339	686.480957	-1170.498657	-78.21302032	615.6378784	-1195.517456	-65.77094269	621.1513672	-1146.238525	-114.6273651	577.3831787	-1155.701294	39.59298325	518.5307617	-1454.307739	64.82613373	451.4963379	-1490.994141	87.4708786	496.7613831	-1488.21875	185.6176758	305.914032	-1610.626831	131.4221191	250.6998291	-1594.600464	178.683197	244.2004089	-1608.442505	61.66115189	43.37282562	-1516.235107	263.6780701	47.19586182	-1559.802246	205.9444275	23.71605873	-1658.096069	59.4271698	491.6881409	-891.7947388	124.4805679	519.4912109	-855.5548706	104.0802765	474.2438049	-852.0546265	158.2646027	302.2753296	-759.6917725	174.3435364	225.0742188	-753.8441772	134.3931274	247.4660339	-774.7811279	51.0915947	41.52270126	-876.0975952	241.6657257	43.84626007	-793.3253784	169.4256439	36.61094284	-709.7620239	379.6765442	754.3398438	-1194.708252	330.0551147	598.354187	-1191.817871	255.2946014	855.168396	-1367.08313	116.4369583	771.4315796	-1403.192383	78.4145813	735.7750854	-1362.828247	79.36057281	729.2612305	-1412.283203	67.56887817	693.3092651	-1485.428101	113.855278	709.1947021	-1527.990234	110.5322571	740.0582886	-1488.388794	160.3209229	783.3745728	-1535.987183	292.6178894	851.2470093	-1001.187805	167.7581482	750.895813	-945.579895	106.7350388	735.5554199	-946.8262939	120.5495758	715.3571167	-868.4396362	165.3371277	759.6870117	-882.392395	164.2344513	744.2198486	-833.5223999	198.6117859	779.7817993	-818.7250977	nan	nan	nan	0.248787999	0.090494797	-0.375023991	0.094386198	0.090270303	-0.0467433	0.0286636	0.034857601	-0.0354173	0.039129701	0.223646998	-0.843207002	0.314083993	2.876919985	-0.335094005	2.760610104	0	0
696	3.475	132.0656891	788.1029663	-2296.940186	265.3408203	820.3702393	-79.37421417	542.3891602	980.3030396	-1180.023438	481.447937	994.5384521	-1102.616211	480.2166748	995.0377808	-1260.41687	302.9769897	908.2404175	-1174.21875	145.2082672	802.4482422	-1180.240479	126.2939835	789.7857056	-1183.702026	79.24255371	750.3243408	-1132.939697	86.5021286	742.5269165	-1181.596069	64.00111389	715.7746582	-1175.147461	25.74917793	724.5756226	-1175.059937	-14.75329113	682.0778809	-1120.974854	-22.14963531	685.1271973	-1170.51709	-78.07577515	614.1022339	-1195.509399	-65.66305542	619.6314087	-1146.234985	-114.4818497	575.8339844	-1155.699463	39.4447937	517.5233154	-1454.236328	64.82501221	450.6020203	-1491.01709	87.40279388	495.8995056	-1488.164551	185.6717529	305.8836975	-1610.659424	131.4689026	250.6868896	-1594.598755	178.718689	244.1734772	-1608.466553	61.67914963	43.38560104	-1516.223511	263.6795959	47.19852448	-1559.809204	205.9393768	23.70866394	-1658.116455	59.57453156	490.8181458	-891.8914185	124.578476	518.8303833	-855.7236328	104.2729721	473.5491333	-852.1245117	158.4638062	302.2216492	-759.6989136	174.4707794	225.0000763	-753.8422852	134.5511017	247.4296875	-774.7992554	51.09774017	41.52728271	-876.1161499	241.6680145	43.83430099	-793.34729	169.4388733	36.61506653	-709.7804565	379.817688	752.7039795	-1194.830078	330.1823425	596.7233887	-1191.924194	255.4508209	853.5743408	-1367.184448	116.5534058	769.8963623	-1403.372559	78.50534058	734.2830811	-1363.000977	79.47516632	727.7351074	-1412.446655	67.70613098	691.7703247	-1485.571167	114.0248108	707.6348877	-1528.103271	110.6917953	738.4977417	-1488.499756	160.5153351	781.8014526	-1536.066284	292.8377686	849.6192017	-1001.274048	167.9038391	749.4116821	-945.6461182	106.8726501	734.12146	-946.9172974	120.6474838	713.8831177	-868.5280151	165.4757385	758.1729126	-882.4758301	164.3618317	742.6991577	-833.6078491	198.7594147	778.234436	-818.8008423	nan	nan	nan	0.250054985	0.088173501	-0.368241996	0.095881999	0.0916024	-0.047816701	0.029665399	0.0349898	-0.034251299	0.041310199	0.220872998	-0.842688978	0.314500004	2.875910044	-0.332457989	2.760629892	0	0
